  0
SECTION
  2
HEADER
  9
$ACADVER
  1
AC1009
  9
$INSBASE
 10
0.0
 20
0.0
 30
0.0
  9
$EXTMIN
 10
-250.0250000000000057
 20
-250.0250000000000057
 30
0.0
  9
$EXTMAX
 10
250.0250000000000057
 20
200.0
 30
0.0
  9
$LIMMIN
 10
0.0
 20
0.0
  9
$LIMMAX
 10
552.7888098227894034
 20
498.1030360117471787
  9
$ORTHOMODE
 70
     0
  9
$REGENMODE
 70
     1
  9
$FILLMODE
 70
     1
  9
$QTEXTMODE
 70
     0
  9
$MIRRTEXT
 70
     0
  9
$DRAGMODE
 70
     2
  9
$LTSCALE
 40
1.0
  9
$OSMODE
 70
  1535
  9
$ATTMODE
 70
     1
  9
$TEXTSIZE
 40
0.2
  9
$TRACEWID
 40
0.05
  9
$TEXTSTYLE
  7
STANDARD
  9
$CLAYER
  8
0
  9
$CELTYPE
  6
BYLAYER
  9
$CECOLOR
 62
   256
  9
$DIMSCALE
 40
1.0
  9
$DIMASZ
 40
0.18
  9
$DIMEXO
 40
0.0625
  9
$DIMDLI
 40
0.38
  9
$DIMRND
 40
0.0
  9
$DIMDLE
 40
0.0
  9
$DIMEXE
 40
0.18
  9
$DIMTP
 40
0.0
  9
$DIMTM
 40
0.0
  9
$DIMTXT
 40
0.18
  9
$DIMCEN
 40
0.09
  9
$DIMTSZ
 40
0.0
  9
$DIMTOL
 70
     0
  9
$DIMLIM
 70
     0
  9
$DIMTIH
 70
     1
  9
$DIMTOH
 70
     1
  9
$DIMSE1
 70
     0
  9
$DIMSE2
 70
     0
  9
$DIMTAD
 70
     0
  9
$DIMZIN
 70
     0
  9
$DIMBLK
  1

  9
$DIMASO
 70
     1
  9
$DIMSHO
 70
     1
  9
$DIMPOST
  1

  9
$DIMAPOST
  1

  9
$DIMALT
 70
     0
  9
$DIMALTD
 70
     2
  9
$DIMALTF
 40
25.3999999999999986
  9
$DIMLFAC
 40
1.0
  9
$DIMTOFL
 70
     0
  9
$DIMTVP
 40
0.0
  9
$DIMTIX
 70
     0
  9
$DIMSOXD
 70
     0
  9
$DIMSAH
 70
     0
  9
$DIMBLK1
  1

  9
$DIMBLK2
  1

  9
$DIMSTYLE
  2
STANDARD
  9
$DIMCLRD
 70
     0
  9
$DIMCLRE
 70
     0
  9
$DIMCLRT
 70
     0
  9
$DIMTFAC
 40
1.0
  9
$DIMGAP
 40
0.09
  9
$LUNITS
 70
     2
  9
$LUPREC
 70
     4
  9
$SKETCHINC
 40
0.1
  9
$FILLETRAD
 40
0.0
  9
$AUNITS
 70
     0
  9
$AUPREC
 70
     0
  9
$MENU
  1
.
  9
$ELEVATION
 40
0.0
  9
$PELEVATION
 40
0.0
  9
$THICKNESS
 40
0.0
  9
$LIMCHECK
 70
     0
  9
$BLIPMODE
 70
     0
  9
$CHAMFERA
 40
0.0
  9
$CHAMFERB
 40
0.0
  9
$SKPOLY
 70
     0
  9
$TDCREATE
 40
2459660.4594560191035271
  9
$TDUPDATE
 40
2459675.6486458331346512
  9
$TDINDWG
 40
0.0039930556
  9
$TDUSRTIMER
 40
0.0039930556
  9
$USRTIMER
 70
     1
  9
$ANGBASE
 50
0.0
  9
$ANGDIR
 70
     0
  9
$PDMODE
 70
     0
  9
$PDSIZE
 40
0.0
  9
$PLINEWID
 40
0.0
  9
$COORDS
 70
     1
  9
$SPLFRAME
 70
     0
  9
$SPLINETYPE
 70
     6
  9
$SPLINESEGS
 70
     8
  9
$ATTDIA
 70
     1
  9
$ATTREQ
 70
     1
  9
$HANDLING
 70
     1
  9
$HANDSEED
  5
5D1
  9
$SURFTAB1
 70
     6
  9
$SURFTAB2
 70
     6
  9
$SURFTYPE
 70
     6
  9
$SURFU
 70
     6
  9
$SURFV
 70
     6
  9
$UCSNAME
  2

  9
$UCSORG
 10
0.0
 20
0.0
 30
0.0
  9
$UCSXDIR
 10
1.0
 20
0.0
 30
0.0
  9
$UCSYDIR
 10
0.0
 20
1.0
 30
0.0
  9
$PUCSNAME
  2

  9
$PUCSORG
 10
0.0
 20
0.0
 30
0.0
  9
$PUCSXDIR
 10
1.0
 20
0.0
 30
0.0
  9
$PUCSYDIR
 10
0.0
 20
1.0
 30
0.0
  9
$USERI1
 70
     0
  9
$USERI2
 70
     0
  9
$USERI3
 70
     0
  9
$USERI4
 70
     0
  9
$USERI5
 70
     0
  9
$USERR1
 40
0.0
  9
$USERR2
 40
0.0
  9
$USERR3
 40
0.0
  9
$USERR4
 40
0.0
  9
$USERR5
 40
0.0
  9
$WORLDVIEW
 70
     1
  9
$SHADEDGE
 70
     3
  9
$SHADEDIF
 70
    70
  9
$TILEMODE
 70
     1
  9
$MAXACTVP
 70
    64
  9
$PLIMCHECK
 70
     0
  9
$PEXTMIN
 10
0.0
 20
0.0
 30
0.0
  9
$PEXTMAX
 10
552.7888098227894034
 20
498.1030360117471787
 30
0.0
  9
$PLIMMIN
 10
0.0
 20
0.0
  9
$PLIMMAX
 10
552.7888098227894034
 20
498.1030360117471787
  9
$UNITMODE
 70
     0
  9
$VISRETAIN
 70
     1
  9
$PLINEGEN
 70
     0
  9
$PSLTSCALE
 70
     1
  0
ENDSEC
  0
SECTION
  2
TABLES
  0
TABLE
  2
VPORT
 70
     1
  0
VPORT
  2
*ACTIVE
 70
     0
 10
0.0
 20
0.0
 11
1.0
 21
1.0
 12
65.4989429660177507
 22
0.5993224309343645
 13
0.0
 23
0.0
 14
1.0
 24
1.0
 15
0.0
 25
0.0
 16
0.0
 26
0.0
 36
1.0
 17
0.0
 27
0.0
 37
0.0
 40
346.5250700002305848
 41
2.2927120669056151
 42
50.0
 43
0.0
 44
0.0
 50
0.0
 51
0.0
 71
     0
 72
   100
 73
     1
 74
     0
 75
     1
 76
     0
 77
     0
 78
     0
  0
ENDTAB
  0
TABLE
  2
LTYPE
 70
    59
  0
LTYPE
  2
CONTINUOUS
 70
     0
  3
Solid line
 72
    65
 73
     0
 40
0.0
  0
LTYPE
  2
BY_STANDARD
 70
     0
  3
By Standard ____________    ____    ____   _
 72
    65
 73
     6
 40
1.2402999999999971
 49
0.6614
 49
-0.0827
 49
0.1654
 49
-0.0827
 49
0.1654
 49
-0.0827
  0
LTYPE
  2
CHAIN
 70
     0
  3
Chain ____ _ ____ _ ____ _ ____ _ ____ _ ____
 72
    65
 73
     4
 40
0.7087
 49
0.4724000000000001
 49
-0.0591
 49
0.1181
 49
-0.0591
  0
LTYPE
  2
DASH_DOT
 70
     0
  3
Dash dot __ . __ . __ . __ . __ . __ . __ . __
 72
    65
 73
     4
 40
0.37
 49
0.24
 49
-0.06
 49
0.01
 49
-0.06
  0
LTYPE
  2
DOUBLE_DASH_DOT
 70
     0
  3
Double-Dash Dot __ __ . __ __ . __ __ . __ _
 72
    65
 73
     6
 40
0.4398000000000001
 49
0.24
 49
-0.06
 49
0.0098
 49
-0.06
 49
0.01
 49
-0.06
  0
LTYPE
  2
DASH_TRIPLE_DOT
 70
     0
  3
Dash Triple-Dot _ . . . _ . . . _ . . . _
 72
    65
 73
     8
 40
0.51
 49
0.24
 49
-0.06
 49
0.01
 49
-0.06
 49
0.01
 49
-0.06
 49
0.01
 49
-0.06
  0
LTYPE
  2
DASHED
 70
     0
  3
Dashed __ __ __ __ __ __ __ __ __ __ __ __ __ _
 72
    65
 73
     2
 40
0.2067
 49
0.1654
 49
-0.0413
  0
LTYPE
  2
DASH_DOUBLE_DOT
 70
     0
  3
Dash Double-Dot __ . . __ . . __ . . __ . .
 72
    65
 73
     6
 40
0.4398000000000001
 49
0.24
 49
-0.06
 49
0.0098
 49
-0.06
 49
0.01
 49
-0.06
  0
LTYPE
  2
DASHED_SPACE
 70
     0
  3
Dashed Space __ __ __ __ __ __ __ __ __ __ __ _
 72
    65
 73
     2
 40
0.2067
 49
0.1654
 49
-0.0413
  0
LTYPE
  2
DOTTED
 70
     0
  3
Dotted . . . . . . . . . . . . . . . . . . . . 
 72
    65
 73
     2
 40
0.0482
 49
0.0069
 49
-0.0413
  0
LTYPE
  2
DOUBLE_DASH_CHAIN
 70
     0
  3
Double-Dash Chain ______  __  __  ______  __  _
 72
    65
 73
     6
 40
1.2402999999999971
 49
0.6614
 49
-0.0827
 49
0.1654
 49
-0.0827
 49
0.1654
 49
-0.0827
  0
LTYPE
  2
DOUBLE_DASH_DOUBLE_DOT
 70
     0
  3
Double-Dash Double-dot _ _ . . _ _ . . _
 72
    65
 73
     8
 40
0.7400000000000003
 49
0.24
 49
-0.06
 49
0.24
 49
-0.06
 49
0.01
 49
-0.06
 49
0.01
 49
-0.06
  0
LTYPE
  2
DOUBLE_DASH_TRIPLE_DOT
 70
     0
  3
Double Dash Triple Dot __ __ . . . __ __ . .
 72
    65
 73
    10
 40
0.8100000000000001
 49
0.24
 49
-0.06
 49
0.24
 49
-0.06
 49
0.01
 49
-0.06
 49
0.01
 49
-0.06
 49
0.01
 49
-0.06
  0
LTYPE
  2
LONG_DASH_DOTTED
 70
     0
  3
Long Dash Dotted ____ . ____ . ____ . ____ . _
 72
    65
 73
     4
 40
0.3543
 49
0.2362
 49
-0.0295
 49
0.0591
 49
-0.0295
  0
LTYPE
  2
LONG_DASH_DOUBLE_DOT
 70
     0
  3
Long Dash Double Dot ________  .  .  ________  
 72
    65
 73
     6
 40
0.6799999999999999
 49
0.48
 49
-0.06
 49
0.01
 49
-0.06
 49
0.01
 49
-0.06
  0
LTYPE
  2
LONG_DASH_TRIPLE_DOT
 70
     0
  3
Long Dash Triple Dot ____ ... ____ ... ____
 72
    65
 73
     8
 40
0.3689
 49
0.2362
 49
-0.0295
 49
0.0049
 49
-0.0295
 49
0.0049
 49
-0.0295
 49
0.0049
 49
-0.0295
  0
LTYPE
  2
BORDER
 70
     0
  3
Border __ __ . __ __ . __ __ . __ __ . __ __ .
 72
    65
 73
     6
 40
1.75
 49
0.5
 49
-0.25
 49
0.5
 49
-0.25
 49
0.0
 49
-0.25
  0
LTYPE
  2
BORDER2
 70
     0
  3
Border (.5x) __.__.__.__.__.__.__.__.__.__.__.
 72
    65
 73
     6
 40
0.875
 49
0.25
 49
-0.125
 49
0.25
 49
-0.125
 49
0.0
 49
-0.125
  0
LTYPE
  2
BORDERX2
 70
     0
  3
Border (2x) ____  ____  .  ____  ____  .  ___
 72
    65
 73
     6
 40
3.5
 49
1.0
 49
-0.5
 49
1.0
 49
-0.5
 49
0.0
 49
-0.5
  0
LTYPE
  2
CENTER
 70
     0
  3
Center ____ _ ____ _ ____ _ ____ _ ____ _ ____
 72
    65
 73
     4
 40
2.0
 49
1.25
 49
-0.25
 49
0.25
 49
-0.25
  0
LTYPE
  2
CENTER2
 70
     0
  3
Center (.5x) ___ _ ___ _ ___ _ ___ _ ___ _ ___
 72
    65
 73
     4
 40
1.125
 49
0.75
 49
-0.125
 49
0.125
 49
-0.125
  0
LTYPE
  2
CENTERX2
 70
     0
  3
Center (2x) ________  __  ________  __  _____
 72
    65
 73
     4
 40
4.0
 49
2.5
 49
-0.5
 49
0.5
 49
-0.5
  0
LTYPE
  2
DASHDOT2
 70
     0
  3
Dash dot (.5x) _._._._._._._._._._._._._._._.
 72
    65
 73
     4
 40
0.5
 49
0.25
 49
-0.125
 49
0.0
 49
-0.125
  0
LTYPE
  2
DASHDOTX2
 70
     0
  3
Dash dot (2x) ____  .  ____  .  ____  .  ___
 72
    65
 73
     4
 40
2.0
 49
1.0
 49
-0.5
 49
0.0
 49
-0.5
  0
LTYPE
  2
DASHED2
 70
     0
  3
Dashed (.5x) _ _ _ _ _ _ _ _ _ _ _ _ _ _ _ _ _
 72
    65
 73
     2
 40
0.375
 49
0.25
 49
-0.125
  0
LTYPE
  2
DASHEDX2
 70
     0
  3
Dashed (2x) ____  ____  ____  ____  ____  ___
 72
    65
 73
     2
 40
1.5
 49
1.0
 49
-0.5
  0
LTYPE
  2
DIVIDE
 70
     0
  3
Divide ____ . . ____ . . ____ . . ____ . . ____
 72
    65
 73
     6
 40
1.25
 49
0.5
 49
-0.25
 49
0.0
 49
-0.25
 49
0.0
 49
-0.25
  0
LTYPE
  2
DIVIDE2
 70
     0
  3
Divide (.5x) __..__..__..__..__..__..__..__.._
 72
    65
 73
     6
 40
0.625
 49
0.25
 49
-0.125
 49
0.0
 49
-0.125
 49
0.0
 49
-0.125
  0
LTYPE
  2
DIVIDEX2
 70
     0
  3
Divide (2x) ________  .  .  ________  .  .  _
 72
    65
 73
     6
 40
2.5
 49
1.0
 49
-0.5
 49
0.0
 49
-0.5
 49
0.0
 49
-0.5
  0
LTYPE
  2
DOT
 70
     0
  3
Dot . . . . . . . . . . . . . . . . . . . . . .
 72
    65
 73
     2
 40
0.25
 49
0.0
 49
-0.25
  0
LTYPE
  2
DOT2
 70
     0
  3
Dot (.5x) .....................................
 72
    65
 73
     2
 40
0.125
 49
0.0
 49
-0.125
  0
LTYPE
  2
DOTX2
 70
     0
  3
Dot (2x) .  .  .  .  .  .  .  .  .  .  .  .  . 
 72
    65
 73
     2
 40
0.5
 49
0.0
 49
-0.5
  0
LTYPE
  2
HIDDEN
 70
     0
  3
Hidden __ __ __ __ __ __ __ __ __ __ __ __ __ _
 72
    65
 73
     2
 40
0.375
 49
0.25
 49
-0.125
  0
LTYPE
  2
HIDDEN2
 70
     0
  3
Hidden (.5x) _ _ _ _ _ _ _ _ _ _ _ _ _ _ _ _ _
 72
    65
 73
     2
 40
0.1875
 49
0.125
 49
-0.0625
  0
LTYPE
  2
HIDDENX2
 70
     0
  3
Hidden (2x) ____ ____ ____ ____ ____ ____ ____
 72
    65
 73
     2
 40
0.75
 49
0.5
 49
-0.25
  0
LTYPE
  2
PHANTOM
 70
     0
  3
Phantom ______  __  __  ______  __  __  ______
 72
    65
 73
     6
 40
2.5
 49
1.25
 49
-0.25
 49
0.25
 49
-0.25
 49
0.25
 49
-0.25
  0
LTYPE
  2
PHANTOM2
 70
     0
  3
Phantom (.5x) ___ _ _ ___ _ _ ___ _ _ ___ _ _
 72
    65
 73
     6
 40
1.25
 49
0.625
 49
-0.125
 49
0.125
 49
-0.125
 49
0.125
 49
-0.125
  0
LTYPE
  2
PHANTOMX2
 70
     0
  3
Phantom (2x) ____________    ____    ____   _
 72
    65
 73
     6
 40
5.0
 49
2.5
 49
-0.5
 49
0.5
 49
-0.5
 49
0.5
 49
-0.5
  0
LTYPE
  2
ACAD_ISO02W100
 70
     0
  3
ISO dash __ __ __ __ __ __ __ __ __ __ __ __ __
 72
    65
 73
     2
 40
0.59
 49
0.47
 49
-0.12
  0
LTYPE
  2
ACAD_ISO03W100
 70
     0
  3
ISO dash space __    __    __    __    __    __
 72
    65
 73
     2
 40
1.179999999999999
 49
0.47
 49
-0.71
  0
LTYPE
  2
ACAD_ISO04W100
 70
     0
  3
ISO long-dash dot ____ . ____ . ____ . ____ . _
 72
    65
 73
     4
 40
1.179999999999999
 49
0.9399999999999998
 49
-0.12
 49
0.0
 49
-0.12
  0
LTYPE
  2
ACAD_ISO05W100
 70
     0
  3
ISO long-dash double-dot ____ .. ____ .. ____ .
 72
    65
 73
     6
 40
1.299999999999998
 49
0.9399999999999998
 49
-0.12
 49
0.0
 49
-0.12
 49
0.0
 49
-0.12
  0
LTYPE
  2
ACAD_ISO06W100
 70
     0
  3
ISO long-dash triple-dot ____ ... ____ ... ____
 72
    65
 73
     8
 40
1.419999999999999
 49
0.9399999999999998
 49
-0.12
 49
0.0
 49
-0.12
 49
0.0
 49
-0.12
 49
0.0
 49
-0.12
  0
LTYPE
  2
ACAD_ISO07W100
 70
     0
  3
ISO dot . . . . . . . . . . . . . . . . . . . .
 72
    65
 73
     2
 40
0.12
 49
0.0
 49
-0.12
  0
LTYPE
  2
ACAD_ISO08W100
 70
     0
  3
ISO long-dash short-dash ____ __ ____ __ ____ _
 72
    65
 73
     4
 40
0.95
 49
0.47
 49
-0.12
 49
0.24
 49
-0.12
  0
LTYPE
  2
ACAD_ISO09W100
 70
     0
  3
ISO long-dash double-short-dash ____ __ __ ____
 72
    65
 73
     6
 40
1.3100000000000001
 49
0.47
 49
-0.12
 49
0.24
 49
-0.12
 49
0.24
 49
-0.12
  0
LTYPE
  2
ACAD_ISO10W100
 70
     0
  3
ISO dash dot __ . __ . __ . __ . __ . __ . __ .
 72
    65
 73
     4
 40
0.71
 49
0.47
 49
-0.12
 49
0.0
 49
-0.12
  0
LTYPE
  2
ACAD_ISO11W100
 70
     0
  3
ISO double-dash dot __ __ . __ __ . __ __ . __ 
 72
    65
 73
     6
 40
1.299999999999998
 49
0.47
 49
-0.12
 49
0.47
 49
-0.12
 49
0.0
 49
-0.12
  0
LTYPE
  2
ACAD_ISO12W100
 70
     0
  3
ISO dash double-dot __ . . __ . . __ . . __ . .
 72
    65
 73
     6
 40
0.8299999999999998
 49
0.47
 49
-0.12
 49
0.0
 49
-0.12
 49
0.0
 49
-0.12
  0
LTYPE
  2
ACAD_ISO13W100
 70
     0
  3
ISO double-dash double-dot __ __ . . __ __ . . 
 72
    65
 73
     8
 40
1.419999999999999
 49
0.47
 49
-0.12
 49
0.47
 49
-0.12
 49
0.0
 49
-0.12
 49
0.0
 49
-0.12
  0
LTYPE
  2
ACAD_ISO14W100
 70
     0
  3
ISO dash triple-dot __ . . . __ . . . __ . . . 
 72
    65
 73
     8
 40
0.95
 49
0.47
 49
-0.12
 49
0.0
 49
-0.12
 49
0.0
 49
-0.12
 49
0.0
 49
-0.12
  0
LTYPE
  2
ACAD_ISO15W100
 70
     0
  3
ISO double-dash triple-dot __ __ . . . __ __ . 
 72
    65
 73
    10
 40
1.539999999999998
 49
0.47
 49
-0.12
 49
0.47
 49
-0.12
 49
0.0
 49
-0.12
 49
0.0
 49
-0.12
 49
0.0
 49
-0.12
  0
LTYPE
  2
FENCELINE1
 70
     0
  3
Fenceline circle ----0-----0----0-----0----0---
 72
    65
 73
     4
 40
1.45
 49
0.25
 49
-0.1
 49
-0.1
 49
1.0
  0
LTYPE
  2
FENCELINE2
 70
     0
  3
Fenceline square ----[]-----[]----[]-----[]----
 72
    65
 73
     4
 40
1.45
 49
0.25
 49
-0.1
 49
-0.1
 49
1.0
  0
LTYPE
  2
TRACKS
 70
     0
  3
Tracks -|-|-|-|-|-|-|-|-|-|-|-|-|-|-|-|-|-|-|-|
 72
    65
 73
     2
 40
0.3
 49
0.15
 49
0.15
  0
LTYPE
  2
BATTING
 70
     0
  3
Batting SSSSSSSSSSSSSSSSSSSSSSSSSSSSSSSSSSSSSSS
 72
    65
 73
     4
 40
0.4001000000000002
 49
0.0001
 49
-0.1
 49
-0.2
 49
-0.1
  0
LTYPE
  2
HOT_WATER_SUPPLY
 70
     0
  3
Hot water supply ---- HW ---- HW ---- HW ----
 72
    65
 73
     3
 40
0.9
 49
0.5
 49
-0.2
 49
-0.2
  0
LTYPE
  2
GAS_LINE
 70
     0
  3
Gas line ----GAS----GAS----GAS----GAS----GAS---
 72
    65
 73
     3
 40
0.95
 49
0.5
 49
-0.2
 49
-0.25
  0
LTYPE
  2
ZIGZAG
 70
     0
  3
Zig zag /\/\/\/\/\/\/\/\/\/\/\/\/\/\/\/\/\/\/\/
 72
    65
 73
     4
 40
0.8001000000000001
 49
0.0001
 49
-0.2
 49
-0.4
 49
-0.2
  0
ENDTAB
  0
TABLE
  2
LAYER
 70
     1
  0
LAYER
  2
0
 70
     0
 62
     7
  6
CONTINUOUS
  0
ENDTAB
  0
TABLE
  2
STYLE
 70
     5
  0
STYLE
  2
STANDARD
 70
     0
 40
0.0
 41
1.0
 50
0.0
 71
     0
 42
0.2
  3
txt
  4

  0
STYLE
  2
ANNOTATIVE
 70
     0
 40
0.0
 41
1.0
 50
0.0
 71
     0
 42
0.2
  3
txt
  4

  0
STYLE
  2

 70
     1
 40
0.0
 41
1.0
 50
0.0
 71
     0
 42
0.2
  3
ltypeshp.shx
  4

  0
STYLE
  2
NOTE_TEXT__ANSI__-_3DA
 70
     0
 40
0.0
 41
1.0
 50
0.0
 71
     0
 42
0.2
  3
txt
  4

  0
STYLE
  2
SKETCH_TEXT__ANSI__-_3DA
 70
     0
 40
0.0
 41
1.0
 50
0.0
 71
     0
 42
0.2
  3
txt
  4

  0
ENDTAB
  0
TABLE
  2
VIEW
 70
     0
  0
ENDTAB
  0
TABLE
  2
UCS
 70
     0
  0
ENDTAB
  0
TABLE
  2
APPID
 70
     5
  0
APPID
  2
ACAD
 70
     0
  0
APPID
  2
ACADANNOTATIVE
 70
     0
  0
APPID
  2
ACAD_NAV_VCDISPLAY
 70
     0
  0
APPID
  2
ACAD_MLEADERVER
 70
     0
  0
APPID
  2
ACAD_DSTYLE_DIMRADIAL_EXTENSION
 70
     0
  0
ENDTAB
  0
TABLE
  2
DIMSTYLE
 70
     2
  0
DIMSTYLE
  2
STANDARD
 70
     0
  3

  4

  5

  6

  7

 40
1.0
 41
0.18
 42
0.0625
 43
0.38
 44
0.18
 45
0.0
 46
0.0
 47
0.0
 48
0.0
140
0.18
141
0.09
142
0.0
143
25.3999999999999986
144
1.0
145
0.0
146
1.0
147
0.09
 71
     0
 72
     0
 73
     1
 74
     1
 75
     0
 76
     0
 77
     0
 78
     0
170
     0
171
     2
172
     0
173
     0
174
     0
175
     0
176
     0
177
     0
178
     0
  0
DIMSTYLE
  2
ANNOTATIVE
 70
     0
  3

  4

  5

  6

  7

 40
1.0
 41
0.18
 42
0.0625
 43
0.38
 44
0.18
 45
0.0
 46
0.0
 47
0.0
 48
0.0
140
0.18
141
0.09
142
0.0
143
25.3999999999999986
144
1.0
145
0.0
146
1.0
147
0.09
 71
     0
 72
     0
 73
     1
 74
     1
 75
     0
 76
     0
 77
     0
 78
     0
170
     0
171
     2
172
     0
173
     0
174
     0
175
     0
176
     0
177
     0
178
     0
  0
ENDTAB
  0
ENDSEC
  0
SECTION
  2
BLOCKS
  0
BLOCK
  8
0
  2
$MODEL_SPACE
 70
     0
 10
0.0
 20
0.0
 30
0.0
  3
$MODEL_SPACE
  1

  0
ENDBLK
  5
461
  8
0
  0
BLOCK
 67
     1
  8
0
  2
$PAPER_SPACE
 70
     0
 10
0.0
 20
0.0
 30
0.0
  3
$PAPER_SPACE
  1

  0
ENDBLK
  5
45D
 67
     1
  8
0
  0
ENDSEC
  0
SECTION
  2
ENTITIES
  0
POLYLINE
  5
B8
  8
0
 66
     1
 10
0.0
 20
0.0
 30
0.0
 70
     1
  0
VERTEX
  5
4BC
  8
0
 10
-200.0
 20
192.5
 30
0.0
 42
-0.4142135623730951
  0
VERTEX
  5
4BD
  8
0
 10
-192.5
 20
200.0
 30
0.0
  0
VERTEX
  5
4BE
  8
0
 10
192.5
 20
200.0
 30
0.0
 42
-0.4142135623730951
  0
VERTEX
  5
4BF
  8
0
 10
200.0
 20
192.5
 30
0.0
  0
VERTEX
  5
4C0
  8
0
 10
200.0
 20
66.0250000000000199
 30
0.0
 42
0.4142135623730951
  0
VERTEX
  5
4C1
  8
0
 10
206.0
 20
60.0250000000000128
 30
0.0
  0
VERTEX
  5
4C2
  8
0
 10
213.9749999999999943
 20
60.0250000000000128
 30
0.0
 42
0.3659773818630434
  0
VERTEX
  5
4C3
  8
0
 10
219.8910797830995989
 20
65.0250000000000199
 30
0.0
 42
-0.365977381863043
  0
VERTEX
  5
4C4
  8
0
 10
225.8071595661992035
 20
70.0250000000000199
 30
0.0
  0
VERTEX
  5
4C5
  8
0
 10
244.0250000000000057
 20
70.0249999999999915
 30
0.0
 42
-0.4142135623730951
  0
VERTEX
  5
4C6
  8
0
 10
250.0250000000000057
 20
64.0250000000000199
 30
0.0
  0
VERTEX
  5
4C7
  8
0
 10
250.0250000000000057
 20
25.9750000000000014
 30
0.0
 42
-0.4142135623730951
  0
VERTEX
  5
4C8
  8
0
 10
244.0250000000000057
 20
19.9749999999999801
 30
0.0
  0
VERTEX
  5
4C9
  8
0
 10
225.9749999999999943
 20
19.9749999999999801
 30
0.0
 42
-0.3659773818630436
  0
VERTEX
  5
4CA
  8
0
 10
220.0589202169003897
 20
24.9750000000000014
 30
0.0
 42
0.3659773818630434
  0
VERTEX
  5
4CB
  8
0
 10
214.1428404338008136
 20
29.9750000000000014
 30
0.0
  0
VERTEX
  5
4CC
  8
0
 10
206.0
 20
29.9750000000000014
 30
0.0
 42
0.4142135623730951
  0
VERTEX
  5
4CD
  8
0
 10
200.0
 20
23.9749999999999908
 30
0.0
  0
VERTEX
  5
4CE
  8
0
 10
200.0
 20
-24.0249999999999986
 30
0.0
 42
-0.4142135623730951
  0
VERTEX
  5
4CF
  8
0
 10
194.0
 20
-30.0249999999999915
 30
0.0
  0
VERTEX
  5
4D0
  8
0
 10
185.9749999999999943
 20
-30.0249999999999915
 30
0.0
 42
-0.3659773818630434
  0
VERTEX
  5
4D1
  8
0
 10
180.0589202169003897
 20
-25.0249999999999986
 30
0.0
 42
0.3659773818630432
  0
VERTEX
  5
4D2
  8
0
 10
174.1428404338008136
 20
-20.0250000000000092
 30
0.0
  0
VERTEX
  5
4D3
  8
0
 10
156.0250000000000057
 20
-20.0250000000000092
 30
0.0
 42
0.4142135623730951
  0
VERTEX
  5
4D4
  8
0
 10
150.0250000000000057
 20
-26.0249999999999986
 30
0.0
  0
VERTEX
  5
4D5
  8
0
 10
150.0250000000000057
 20
-63.9749999999999872
 30
0.0
 42
0.4142135623730951
  0
VERTEX
  5
4D6
  8
0
 10
156.0250000000000057
 20
-69.9749999999999943
 30
0.0
  0
VERTEX
  5
4D7
  8
0
 10
173.9749999999999091
 20
-69.9749999999999943
 30
0.0
 42
0.365977381863043
  0
VERTEX
  5
4D8
  8
0
 10
179.8910797830995989
 20
-64.9750000000000085
 30
0.0
 42
-0.3659773818630438
  0
VERTEX
  5
4D9
  8
0
 10
185.8071595661990045
 20
-59.9750000000000227
 30
0.0
  0
VERTEX
  5
4DA
  8
0
 10
194.0
 20
-59.9750000000000227
 30
0.0
 42
-0.4142135623730951
  0
VERTEX
  5
4DB
  8
0
 10
200.0
 20
-65.9749999999999943
 30
0.0
  0
VERTEX
  5
4DC
  8
0
 10
200.0
 20
-192.5
 30
0.0
 42
-0.4142135623730951
  0
VERTEX
  5
4DD
  8
0
 10
192.5
 20
-200.0
 30
0.0
  0
VERTEX
  5
4DE
  8
0
 10
66.0249999999999915
 20
-200.0
 30
0.0
 42
0.4142135623730951
  0
VERTEX
  5
4DF
  8
0
 10
60.0249999999999702
 20
-206.0
 30
0.0
  0
VERTEX
  5
4E0
  8
0
 10
60.0249999999999773
 20
-214.1428404338008136
 30
0.0
 42
0.3659773818630438
  0
VERTEX
  5
4E1
  8
0
 10
65.0249999999999915
 20
-220.0589202169003897
 30
0.0
 42
-0.3659773818630434
  0
VERTEX
  5
4E2
  8
0
 10
70.0250000000000199
 20
-225.9749999999999943
 30
0.0
  0
VERTEX
  5
4E3
  8
0
 10
70.0249999999999915
 20
-244.0250000000000057
 30
0.0
 42
-0.4142135623730951
  0
VERTEX
  5
4E4
  8
0
 10
64.0250000000000199
 20
-250.0250000000000057
 30
0.0
  0
VERTEX
  5
4E5
  8
0
 10
25.9750000000000085
 20
-250.0250000000000057
 30
0.0
 42
-0.4142135623730951
  0
VERTEX
  5
4E6
  8
0
 10
19.9750000000000014
 20
-244.0250000000000057
 30
0.0
  0
VERTEX
  5
4E7
  8
0
 10
19.9750000000000014
 20
-225.8071595661990898
 30
0.0
 42
-0.3659773818630434
  0
VERTEX
  5
4E8
  8
0
 10
24.9750000000000014
 20
-219.8910797830995989
 30
0.0
 42
0.3659773818630436
  0
VERTEX
  5
4E9
  8
0
 10
29.9750000000000014
 20
-213.9749999999999091
 30
0.0
  0
VERTEX
  5
4EA
  8
0
 10
29.9750000000000014
 20
-206.0
 30
0.0
 42
0.4142135623730951
  0
VERTEX
  5
4EB
  8
0
 10
23.9750000000000014
 20
-200.0
 30
0.0
  0
VERTEX
  5
4EC
  8
0
 10
-24.0249999999999986
 20
-200.0
 30
0.0
 42
-0.4142135623730951
  0
VERTEX
  5
4ED
  8
0
 10
-30.0249999999999915
 20
-194.0
 30
0.0
  0
VERTEX
  5
4EE
  8
0
 10
-30.0249999999999986
 20
-185.9749999999999943
 30
0.0
 42
-0.3659773818630436
  0
VERTEX
  5
4EF
  8
0
 10
-25.0250000000000092
 20
-180.0589202169003897
 30
0.0
 42
0.3659773818630434
  0
VERTEX
  5
4F0
  8
0
 10
-20.0250000000000092
 20
-174.1428404338008136
 30
0.0
  0
VERTEX
  5
4F1
  8
0
 10
-20.0250000000000092
 20
-156.0250000000000057
 30
0.0
 42
0.4142135623730951
  0
VERTEX
  5
4F2
  8
0
 10
-26.0249999999999986
 20
-150.0250000000000057
 30
0.0
  0
VERTEX
  5
4F3
  8
0
 10
-63.9749999999999872
 20
-150.0250000000000057
 30
0.0
 42
0.4142135623730951
  0
VERTEX
  5
4F4
  8
0
 10
-69.9749999999999943
 20
-156.0250000000000057
 30
0.0
  0
VERTEX
  5
4F5
  8
0
 10
-69.9749999999999943
 20
-173.9749999999999091
 30
0.0
 42
0.365977381863043
  0
VERTEX
  5
4F6
  8
0
 10
-64.9750000000000085
 20
-179.8910797830995989
 30
0.0
 42
-0.3659773818630438
  0
VERTEX
  5
4F7
  8
0
 10
-59.9750000000000227
 20
-185.8071595661990045
 30
0.0
  0
VERTEX
  5
4F8
  8
0
 10
-59.9750000000000227
 20
-194.0
 30
0.0
 42
-0.4142135623730951
  0
VERTEX
  5
4F9
  8
0
 10
-65.9749999999999943
 20
-200.0
 30
0.0
  0
VERTEX
  5
4FA
  8
0
 10
-192.5
 20
-200.0
 30
0.0
 42
-0.4142135623730951
  0
VERTEX
  5
4FB
  8
0
 10
-200.0
 20
-192.5
 30
0.0
  0
VERTEX
  5
4FC
  8
0
 10
-200.0
 20
-66.0250000000000199
 30
0.0
 42
0.4142135623730951
  0
VERTEX
  5
4FD
  8
0
 10
-206.0
 20
-60.0250000000000128
 30
0.0
  0
VERTEX
  5
4FE
  8
0
 10
-213.9749999999999943
 20
-60.0250000000000128
 30
0.0
 42
0.365977381863043
  0
VERTEX
  5
4FF
  8
0
 10
-219.8910797830995989
 20
-65.0249999999999915
 30
0.0
 42
-0.3659773818630434
  0
VERTEX
  5
500
  8
0
 10
-225.8071595661992035
 20
-70.0249999999999915
 30
0.0
  0
VERTEX
  5
501
  8
0
 10
-244.0250000000000057
 20
-70.0249999999999915
 30
0.0
 42
-0.4142135623730951
  0
VERTEX
  5
502
  8
0
 10
-250.0250000000000057
 20
-64.0250000000000199
 30
0.0
  0
VERTEX
  5
503
  8
0
 10
-250.0250000000000057
 20
-25.9750000000000014
 30
0.0
 42
-0.4142135623730951
  0
VERTEX
  5
504
  8
0
 10
-244.0250000000000057
 20
-19.9749999999999801
 30
0.0
  0
VERTEX
  5
505
  8
0
 10
-225.9749999999999943
 20
-19.9750000000000014
 30
0.0
 42
-0.3659773818630434
  0
VERTEX
  5
506
  8
0
 10
-220.0589202169003897
 20
-24.9750000000000014
 30
0.0
 42
0.3659773818630432
  0
VERTEX
  5
507
  8
0
 10
-214.1428404338008136
 20
-29.9750000000000014
 30
0.0
  0
VERTEX
  5
508
  8
0
 10
-206.0
 20
-29.9750000000000014
 30
0.0
 42
0.4142135623730951
  0
VERTEX
  5
509
  8
0
 10
-200.0
 20
-23.9750000000000014
 30
0.0
  0
VERTEX
  5
50A
  8
0
 10
-200.0
 20
24.0249999999999986
 30
0.0
 42
-0.4142135623730951
  0
VERTEX
  5
50B
  8
0
 10
-194.0
 20
30.0249999999999986
 30
0.0
  0
VERTEX
  5
50C
  8
0
 10
-185.8071595661990045
 20
30.0249999999999986
 30
0.0
 42
-0.3659773818630434
  0
VERTEX
  5
50D
  8
0
 10
-179.8910797830995136
 20
25.0250000000000092
 30
0.0
 42
0.3659773818630436
  0
VERTEX
  5
50E
  8
0
 10
-173.9749999999999091
 20
20.0250000000000092
 30
0.0
  0
VERTEX
  5
50F
  8
0
 10
-156.0250000000000057
 20
20.0250000000000092
 30
0.0
 42
0.4142135623730951
  0
VERTEX
  5
510
  8
0
 10
-150.0250000000000057
 20
26.0249999999999986
 30
0.0
  0
VERTEX
  5
511
  8
0
 10
-150.0250000000000057
 20
63.9749999999999872
 30
0.0
 42
0.4142135623730951
  0
VERTEX
  5
512
  8
0
 10
-156.0250000000000057
 20
69.9749999999999943
 30
0.0
  0
VERTEX
  5
513
  8
0
 10
-174.1428404338006999
 20
69.9749999999999943
 30
0.0
 42
0.365977381863043
  0
VERTEX
  5
514
  8
0
 10
-180.0589202169003897
 20
64.9750000000000085
 30
0.0
 42
-0.3659773818630434
  0
VERTEX
  5
515
  8
0
 10
-185.9749999999999943
 20
59.9750000000000227
 30
0.0
  0
VERTEX
  5
516
  8
0
 10
-194.0
 20
59.9750000000000227
 30
0.0
 42
-0.4142135623730951
  0
VERTEX
  5
517
  8
0
 10
-200.0
 20
65.9749999999999943
 30
0.0
  0
SEQEND
  5
518
  8
0
  0
POLYLINE
  5
11F
  8
0
 66
     1
 10
0.0
 20
0.0
 30
0.0
 70
     1
  0
VERTEX
  5
519
  8
0
 10
90.0000000000000568
 20
-150.0
 30
0.0
  0
VERTEX
  5
51A
  8
0
 10
120.0
 20
-150.0
 30
0.0
  0
VERTEX
  5
51B
  8
0
 10
120.0
 20
-130.0
 30
0.0
  0
VERTEX
  5
51C
  8
0
 10
90.0000000000000568
 20
-130.0
 30
0.0
  0
SEQEND
  5
51D
  8
0
  0
POLYLINE
  5
125
  8
0
 66
     1
 10
0.0
 20
0.0
 30
0.0
 70
     1
  0
VERTEX
  5
51E
  8
0
 10
48.0000000000000426
 20
-130.0
 30
0.0
  0
VERTEX
  5
51F
  8
0
 10
48.0000000000000426
 20
-150.0
 30
0.0
  0
VERTEX
  5
520
  8
0
 10
78.0
 20
-150.0
 30
0.0
  0
VERTEX
  5
521
  8
0
 10
78.0
 20
-130.0
 30
0.0
  0
SEQEND
  5
522
  8
0
  0
POLYLINE
  5
12B
  8
0
 66
     1
 10
0.0
 20
0.0
 30
0.0
 70
     1
  0
VERTEX
  5
523
  8
0
 10
6.0000000000000311
 20
-130.0
 30
0.0
  0
VERTEX
  5
524
  8
0
 10
6.0000000000000311
 20
-150.0
 30
0.0
  0
VERTEX
  5
525
  8
0
 10
36.0
 20
-150.0
 30
0.0
  0
VERTEX
  5
526
  8
0
 10
36.0
 20
-130.0
 30
0.0
  0
SEQEND
  5
527
  8
0
  0
POLYLINE
  5
131
  8
0
 66
     1
 10
0.0
 20
0.0
 30
0.0
 70
     1
  0
VERTEX
  5
528
  8
0
 10
-35.9999999999999716
 20
-130.0
 30
0.0
  0
VERTEX
  5
529
  8
0
 10
-35.9999999999999716
 20
-150.0
 30
0.0
  0
VERTEX
  5
52A
  8
0
 10
-6.0000000000000124
 20
-150.0
 30
0.0
  0
VERTEX
  5
52B
  8
0
 10
-6.0000000000000124
 20
-130.0
 30
0.0
  0
SEQEND
  5
52C
  8
0
  0
POLYLINE
  5
137
  8
0
 66
     1
 10
0.0
 20
0.0
 30
0.0
 70
     1
  0
VERTEX
  5
52D
  8
0
 10
-77.9999999999999716
 20
-130.0
 30
0.0
  0
VERTEX
  5
52E
  8
0
 10
-77.9999999999999716
 20
-150.0
 30
0.0
  0
VERTEX
  5
52F
  8
0
 10
-48.0
 20
-150.0
 30
0.0
  0
VERTEX
  5
530
  8
0
 10
-48.0
 20
-130.0
 30
0.0
  0
SEQEND
  5
531
  8
0
  0
POLYLINE
  5
13D
  8
0
 66
     1
 10
0.0
 20
0.0
 30
0.0
 70
     1
  0
VERTEX
  5
532
  8
0
 10
-119.9999999999999005
 20
-130.0
 30
0.0
  0
VERTEX
  5
533
  8
0
 10
-119.9999999999999005
 20
-150.0
 30
0.0
  0
VERTEX
  5
534
  8
0
 10
-90.0
 20
-150.0
 30
0.0
  0
VERTEX
  5
535
  8
0
 10
-90.0
 20
-130.0
 30
0.0
  0
SEQEND
  5
536
  8
0
  0
POLYLINE
  5
14B
  8
0
 66
     1
 10
0.0
 20
0.0
 30
0.0
 70
     1
  0
VERTEX
  5
537
  8
0
 10
-130.0
 20
-120.0
 30
0.0
  0
VERTEX
  5
538
  8
0
 10
-130.0
 20
-90.0000000000000568
 30
0.0
  0
VERTEX
  5
539
  8
0
 10
-150.0
 20
-90.0000000000000568
 30
0.0
  0
VERTEX
  5
53A
  8
0
 10
-150.0
 20
-120.0
 30
0.0
  0
SEQEND
  5
53B
  8
0
  0
POLYLINE
  5
151
  8
0
 66
     1
 10
0.0
 20
0.0
 30
0.0
 70
     1
  0
VERTEX
  5
53C
  8
0
 10
-130.0
 20
-48.0000000000000426
 30
0.0
  0
VERTEX
  5
53D
  8
0
 10
-150.0
 20
-48.0000000000000426
 30
0.0
  0
VERTEX
  5
53E
  8
0
 10
-150.0
 20
-78.0
 30
0.0
  0
VERTEX
  5
53F
  8
0
 10
-130.0
 20
-78.0
 30
0.0
  0
SEQEND
  5
540
  8
0
  0
POLYLINE
  5
157
  8
0
 66
     1
 10
0.0
 20
0.0
 30
0.0
 70
     1
  0
VERTEX
  5
541
  8
0
 10
-150.0
 20
-6.00000000000004
 30
0.0
  0
VERTEX
  5
542
  8
0
 10
-150.0
 20
-36.0000000000000071
 30
0.0
  0
VERTEX
  5
543
  8
0
 10
-130.0
 20
-36.0000000000000071
 30
0.0
  0
VERTEX
  5
544
  8
0
 10
-130.0
 20
-6.00000000000004
 30
0.0
  0
SEQEND
  5
545
  8
0
  0
POLYLINE
  5
15D
  8
0
 66
     1
 10
0.0
 20
0.0
 30
0.0
 70
     1
  0
VERTEX
  5
546
  8
0
 10
-130.0
 20
6.0000000000000044
 30
0.0
  0
VERTEX
  5
547
  8
0
 10
-130.0
 20
35.9999999999999574
 30
0.0
  0
VERTEX
  5
548
  8
0
 10
-150.0
 20
35.9999999999999574
 30
0.0
  0
VERTEX
  5
549
  8
0
 10
-150.0
 20
6.0000000000000044
 30
0.0
  0
SEQEND
  5
54A
  8
0
  0
POLYLINE
  5
163
  8
0
 66
     1
 10
0.0
 20
0.0
 30
0.0
 70
     1
  0
VERTEX
  5
54B
  8
0
 10
-130.0
 20
48.0
 30
0.0
  0
VERTEX
  5
54C
  8
0
 10
-130.0
 20
77.9999999999999432
 30
0.0
  0
VERTEX
  5
54D
  8
0
 10
-150.0
 20
77.9999999999999432
 30
0.0
  0
VERTEX
  5
54E
  8
0
 10
-150.0
 20
48.0
 30
0.0
  0
SEQEND
  5
54F
  8
0
  0
POLYLINE
  5
169
  8
0
 66
     1
 10
0.0
 20
0.0
 30
0.0
 70
     1
  0
VERTEX
  5
550
  8
0
 10
-150.0
 20
119.9999999999999005
 30
0.0
  0
VERTEX
  5
551
  8
0
 10
-150.0
 20
89.9999999999999858
 30
0.0
  0
VERTEX
  5
552
  8
0
 10
-130.0
 20
90.0
 30
0.0
  0
VERTEX
  5
553
  8
0
 10
-130.0
 20
119.9999999999999005
 30
0.0
  0
SEQEND
  5
554
  8
0
  0
POLYLINE
  5
175
  8
0
 66
     1
 10
0.0
 20
0.0
 30
0.0
 70
     1
  0
VERTEX
  5
555
  8
0
 10
130.0
 20
120.0
 30
0.0
  0
VERTEX
  5
556
  8
0
 10
130.0
 20
90.0000000000000568
 30
0.0
  0
VERTEX
  5
557
  8
0
 10
150.0
 20
90.0000000000000142
 30
0.0
  0
VERTEX
  5
558
  8
0
 10
150.0
 20
120.0
 30
0.0
  0
SEQEND
  5
559
  8
0
  0
POLYLINE
  5
17B
  8
0
 66
     1
 10
0.0
 20
0.0
 30
0.0
 70
     1
  0
VERTEX
  5
55A
  8
0
 10
130.0
 20
48.0000000000000284
 30
0.0
  0
VERTEX
  5
55B
  8
0
 10
150.0
 20
48.0000000000000284
 30
0.0
  0
VERTEX
  5
55C
  8
0
 10
150.0
 20
77.9999999999999858
 30
0.0
  0
VERTEX
  5
55D
  8
0
 10
130.0
 20
77.9999999999999858
 30
0.0
  0
SEQEND
  5
55E
  8
0
  0
POLYLINE
  5
181
  8
0
 66
     1
 10
0.0
 20
0.0
 30
0.0
 70
     1
  0
VERTEX
  5
55F
  8
0
 10
130.0
 20
6.0000000000000231
 30
0.0
  0
VERTEX
  5
560
  8
0
 10
150.0
 20
6.0000000000000231
 30
0.0
  0
VERTEX
  5
561
  8
0
 10
150.0
 20
36.0
 30
0.0
  0
VERTEX
  5
562
  8
0
 10
130.0
 20
36.0
 30
0.0
  0
SEQEND
  5
563
  8
0
  0
POLYLINE
  5
187
  8
0
 66
     1
 10
0.0
 20
0.0
 30
0.0
 70
     1
  0
VERTEX
  5
564
  8
0
 10
130.0
 20
-6.0000000000000231
 30
0.0
  0
VERTEX
  5
565
  8
0
 10
130.0
 20
-36.0
 30
0.0
  0
VERTEX
  5
566
  8
0
 10
150.0
 20
-36.0
 30
0.0
  0
VERTEX
  5
567
  8
0
 10
150.0
 20
-6.0000000000000231
 30
0.0
  0
SEQEND
  5
568
  8
0
  0
POLYLINE
  5
18D
  8
0
 66
     1
 10
0.0
 20
0.0
 30
0.0
 70
     1
  0
VERTEX
  5
569
  8
0
 10
150.0
 20
-77.9999999999999858
 30
0.0
  0
VERTEX
  5
56A
  8
0
 10
150.0
 20
-48.0
 30
0.0
  0
VERTEX
  5
56B
  8
0
 10
130.0
 20
-48.0
 30
0.0
  0
VERTEX
  5
56C
  8
0
 10
130.0
 20
-77.9999999999999858
 30
0.0
  0
SEQEND
  5
56D
  8
0
  0
POLYLINE
  5
193
  8
0
 66
     1
 10
0.0
 20
0.0
 30
0.0
 70
     1
  0
VERTEX
  5
56E
  8
0
 10
150.0
 20
-120.0
 30
0.0
  0
VERTEX
  5
56F
  8
0
 10
150.0
 20
-90.0000000000000142
 30
0.0
  0
VERTEX
  5
570
  8
0
 10
130.0
 20
-90.0
 30
0.0
  0
VERTEX
  5
571
  8
0
 10
130.0
 20
-119.9999999999999005
 30
0.0
  0
SEQEND
  5
572
  8
0
  0
CIRCLE
  5
28B
  8
0
 10
0.0
 20
155.0
 30
0.0
 40
2.25
  0
CIRCLE
  5
28C
  8
0
 10
20.0
 20
175.0
 30
0.0
 40
2.25
  0
CIRCLE
  5
28D
  8
0
 10
20.0
 20
195.0
 30
0.0
 40
2.25
  0
CIRCLE
  5
28E
  8
0
 10
-20.0
 20
155.0
 30
0.0
 40
2.25
  0
CIRCLE
  5
28F
  8
0
 10
20.0
 20
155.0
 30
0.0
 40
2.25
  0
CIRCLE
  5
290
  8
0
 10
-20.0
 20
195.0
 30
0.0
 40
2.25
  0
CIRCLE
  5
291
  8
0
 10
-20.0
 20
175.0
 30
0.0
 40
2.25
  0
CIRCLE
  5
292
  8
0
 10
0.0
 20
175.0
 30
0.0
 40
2.25
  0
CIRCLE
  5
293
  8
0
 10
0.0
 20
195.0
 30
0.0
 40
2.25
  0
CIRCLE
  5
294
  8
0
 10
-180.0
 20
195.0
 30
0.0
 40
2.25
  0
CIRCLE
  5
295
  8
0
 10
-180.0
 20
155.0
 30
0.0
 40
2.25
  0
CIRCLE
  5
296
  8
0
 10
180.0
 20
195.0
 30
0.0
 40
2.25
  0
CIRCLE
  5
297
  8
0
 10
180.0
 20
155.0
 30
0.0
 40
2.25
  0
CIRCLE
  5
298
  8
0
 10
140.0
 20
155.0
 30
0.0
 40
2.25
  0
CIRCLE
  5
299
  8
0
 10
140.0
 20
195.0
 30
0.0
 40
2.25
  0
CIRCLE
  5
29A
  8
0
 10
-140.0
 20
195.0
 30
0.0
 40
2.25
  0
CIRCLE
  5
29B
  8
0
 10
-140.0
 20
155.0
 30
0.0
 40
2.25
  0
CIRCLE
  5
29C
  8
0
 10
-190.0
 20
180.0
 30
0.0
 40
2.25
  0
CIRCLE
  5
29D
  8
0
 10
190.0
 20
160.0
 30
0.0
 40
2.25
  0
CIRCLE
  5
29E
  8
0
 10
-155.0
 20
-195.0
 30
0.0
 40
2.25
  0
CIRCLE
  5
29F
  8
0
 10
-195.0
 20
-155.0
 30
0.0
 40
2.25
  0
CIRCLE
  5
2A0
  8
0
 10
-190.0
 20
-180.0
 30
0.0
 40
2.25
  0
CIRCLE
  5
2A1
  8
0
 10
-180.0
 20
-190.0
 30
0.0
 40
2.25
  0
CIRCLE
  5
2A2
  8
0
 10
190.0
 20
-180.0
 30
0.0
 40
2.25
  0
CIRCLE
  5
2A3
  8
0
 10
180.0
 20
-190.0
 30
0.0
 40
2.25
  0
CIRCLE
  5
2A4
  8
0
 10
155.0
 20
-155.0
 30
0.0
 40
2.25
  0
CIRCLE
  5
2A5
  8
0
 10
195.0
 20
-195.0
 30
0.0
 40
2.25
  0
CIRCLE
  5
2A6
  8
0
 10
155.0
 20
-195.0
 30
0.0
 40
2.25
  0
CIRCLE
  5
2A7
  8
0
 10
195.0
 20
-155.0
 30
0.0
 40
2.25
  0
CIRCLE
  5
2A8
  8
0
 10
160.0
 20
-190.0
 30
0.0
 40
2.25
  0
CIRCLE
  5
2A9
  8
0
 10
190.0
 20
-160.0
 30
0.0
 40
2.25
  0
CIRCLE
  5
2AA
  8
0
 10
-160.0
 20
-190.0
 30
0.0
 40
2.25
  0
CIRCLE
  5
2AB
  8
0
 10
-190.0
 20
-160.0
 30
0.0
 40
2.25
  0
CIRCLE
  5
2AC
  8
0
 10
-155.0
 20
-155.0
 30
0.0
 40
2.25
  0
CIRCLE
  5
2AD
  8
0
 10
-195.0
 20
-195.0
 30
0.0
 40
2.25
  0
CIRCLE
  5
2AE
  8
0
 10
190.0
 20
180.0
 30
0.0
 40
2.25
  0
CIRCLE
  5
2AF
  8
0
 10
-190.0
 20
160.0
 30
0.0
 40
2.25
  0
POLYLINE
  5
2C9
  8
0
 66
     1
 10
0.0
 20
0.0
 30
0.0
  0
VERTEX
  5
573
  8
0
 10
-200.0
 20
130.0
 30
0.0
  0
VERTEX
  5
574
  8
0
 10
200.0
 20
130.0
 30
0.0
  0
SEQEND
  5
575
  8
0
  0
POLYLINE
  5
2CD
  8
0
 66
     1
 10
0.0
 20
0.0
 30
0.0
  0
VERTEX
  5
576
  8
0
 10
200.0
 20
150.0
 30
0.0
  0
VERTEX
  5
577
  8
0
 10
-200.0
 20
150.0
 30
0.0
  0
SEQEND
  5
578
  8
0
  0
POLYLINE
  5
2DA
  8
0
 66
     1
 10
0.0
 20
0.0
 30
0.0
  0
VERTEX
  5
579
  8
0
 10
150.0
 20
-200.0
 30
0.0
  0
VERTEX
  5
57A
  8
0
 10
150.0
 20
-150.0
 30
0.0
  0
VERTEX
  5
57B
  8
0
 10
200.0
 20
-150.0
 30
0.0
  0
VERTEX
  5
57C
  8
0
 10
200.0
 20
-130.0
 30
0.0
  0
VERTEX
  5
57D
  8
0
 10
130.0
 20
-130.0
 30
0.0
  0
VERTEX
  5
57E
  8
0
 10
130.0
 20
-200.0
 30
0.0
  0
SEQEND
  5
57F
  8
0
  0
POLYLINE
  5
2E2
  8
0
 66
     1
 10
0.0
 20
0.0
 30
0.0
  0
VERTEX
  5
580
  8
0
 10
130.0
 20
-200.0
 30
0.0
  0
VERTEX
  5
581
  8
0
 10
150.0
 20
-200.0
 30
0.0
  0
VERTEX
  5
582
  8
0
 10
150.0
 20
-150.0
 30
0.0
  0
VERTEX
  5
583
  8
0
 10
200.0
 20
-150.0
 30
0.0
  0
SEQEND
  5
584
  8
0
  0
POLYLINE
  5
2E8
  8
0
 66
     1
 10
0.0
 20
0.0
 30
0.0
  0
VERTEX
  5
585
  8
0
 10
200.0
 20
-130.0
 30
0.0
  0
VERTEX
  5
586
  8
0
 10
130.0
 20
-130.0
 30
0.0
  0
VERTEX
  5
587
  8
0
 10
130.0
 20
-200.0
 30
0.0
  0
SEQEND
  5
588
  8
0
  0
POLYLINE
  5
2ED
  8
0
 66
     1
 10
0.0
 20
0.0
 30
0.0
  0
VERTEX
  5
589
  8
0
 10
-200.0
 20
-150.0
 30
0.0
  0
VERTEX
  5
58A
  8
0
 10
-150.0
 20
-150.0
 30
0.0
  0
VERTEX
  5
58B
  8
0
 10
-150.0
 20
-200.0
 30
0.0
  0
SEQEND
  5
58C
  8
0
  0
POLYLINE
  5
2F8
  8
0
 66
     1
 10
0.0
 20
0.0
 30
0.0
  0
VERTEX
  5
58D
  8
0
 10
-130.0
 20
-200.0
 30
0.0
  0
VERTEX
  5
58E
  8
0
 10
-130.0
 20
-130.0
 30
0.0
  0
VERTEX
  5
58F
  8
0
 10
-200.0
 20
-130.0
 30
0.0
  0
SEQEND
  5
590
  8
0
  0
ENDSEC
  0
EOF
